<?xml version="1.0" encoding="iso-8859-1"?>
<!-- Generator: Adobe Illustrator 17.1.0, SVG Export Plug-In . SVG Version: 6.00 Build 0)  -->
<!DOCTYPE svg PUBLIC "-//W3C//DTD SVG 1.1//EN" "http://www.w3.org/Graphics/SVG/1.1/DTD/svg11.dtd">
<svg version="1.1" id="Capa_1" xmlns="http://www.w3.org/2000/svg" xmlns:xlink="http://www.w3.org/1999/xlink" x="0px" y="0px"
	 viewBox="0 0 220.194 220.194" style="enable-background:new 0 0 220.194 220.194;" xml:space="preserve">
<path d="M215.194,123.039h-28.945l-19.273-33.382c-0.893-1.547-2.544-2.5-4.33-2.5h-38.503l-17.829-30.88l19.272-33.382
	c1.381-2.392,0.562-5.449-1.83-6.83c-2.392-1.382-5.45-0.561-6.83,1.83L97.655,51.277H61.997L42.724,17.896
	c-1.38-2.391-4.437-3.212-6.83-1.83c-2.392,1.381-3.211,4.438-1.83,6.83l19.272,33.382l-19.272,33.38c-0.893,1.547-0.893,3.453,0,5
	l19.272,33.382l-17.829,30.88H5c-2.761,0-5,2.238-5,5c0,2.762,2.239,5,5,5h30.507L54.78,202.3c0.893,1.547,2.544,2.5,4.33,2.5
	h41.432c1.786,0,3.437-0.953,4.33-2.5l19.272-33.381h38.503c1.786,0,3.437-0.953,4.33-2.5l19.272-33.38h28.945c2.761,0,5-2.238,5-5
	S217.956,123.039,215.194,123.039z M61.997,61.277h35.658l17.808,30.843l-17.85,30.918H61.997L44.167,92.157L61.997,61.277z
	 M97.655,194.8H61.997l-17.829-30.881l17.829-30.88h35.616l17.85,30.916L97.655,194.8z"/>
<g>
</g>
<g>
</g>
<g>
</g>
<g>
</g>
<g>
</g>
<g>
</g>
<g>
</g>
<g>
</g>
<g>
</g>
<g>
</g>
<g>
</g>
<g>
</g>
<g>
</g>
<g>
</g>
<g>
</g>
</svg>
